<svg xmlns="http://www.w3.org/2000/svg" width="81" height="92.001" viewBox="0 0 81 92.001">
  <g id="backgroundRounded" transform="translate(-279.001 0)">
    <path id="Subtraction_4" data-name="Subtraction 4" d="M-119,589a59.63,59.63,0,0,1-23.355-4.715,59.8,59.8,0,0,1-19.072-12.859,59.8,59.8,0,0,1-12.858-19.072A59.627,59.627,0,0,1-179,529a59.63,59.63,0,0,1,4.714-23.355A60.125,60.125,0,0,1-169.77,497H-98v88.222A59.781,59.781,0,0,1-119,589Z" transform="translate(458 -497)" fill="#0e86d4"/>
    <path id="Subtraction_5" data-name="Subtraction 5" d="M-116.964,574.865h0a46.148,46.148,0,0,1-18.136-3.682,47,47,0,0,1-14.9-10.066,47.873,47.873,0,0,1-10.173-14.983,48.41,48.41,0,0,1-3.948-18.432,48.429,48.429,0,0,1,3.387-18.746A48.06,48.06,0,0,1-153.894,497H-97v73.379a46.155,46.155,0,0,1-19.123,4.478C-116.4,574.862-116.684,574.865-116.964,574.865Z" transform="translate(457 -497)" fill="#66a1ee"/>
  </g>
</svg>
