<svg xmlns="http://www.w3.org/2000/svg" width="28" height="31" viewBox="0 0 28 31">
  <g id="iconakunaktif" transform="translate(-3746 -2257)">
    <path id="profil" d="M9,10.125A5.063,5.063,0,1,0,3.938,5.063,5.064,5.064,0,0,0,9,10.125Zm4.5,1.125H11.563a6.12,6.12,0,0,1-5.126,0H4.5A4.5,4.5,0,0,0,0,15.75v.563A1.688,1.688,0,0,0,1.688,18H16.313A1.688,1.688,0,0,0,18,16.313V15.75A4.5,4.5,0,0,0,13.5,11.25Z" transform="translate(3751 2257)" fill="#020e8a"/>
    <text id="Akun" transform="translate(3760 2285)" fill="#020e8a" font-size="10" font-family="ShipporiMinchoB1-Medium, Shippori Mincho B1" font-weight="500"><tspan x="-13.135" y="0">Akun</tspan></text>
  </g>
</svg>
