<svg xmlns="http://www.w3.org/2000/svg" width="20.162" height="17.285" viewBox="0 0 20.162 17.285">
  <g id="iconeyeoff" transform="translate(-2.252 -4.499)">
    <path id="Path_338" data-name="Path 338" d="M5.6,4.684a.64.64,0,0,0-.9.9l16,16.01a.634.634,0,0,0,.617.162.624.624,0,0,0,.288-.167.638.638,0,0,0,0-.9Z" transform="translate(-0.811)" fill="#c9c9c9"/>
    <g id="Group_224" data-name="Group 224" transform="translate(2.252 6.66)">
      <path id="Path_339" data-name="Path 339" d="M12.522,19.719a4.047,4.047,0,0,1-3.848-5.779l-2.4-2.408a31.573,31.573,0,0,0-3.83,3.659.712.712,0,0,0,0,.959c2.921,3.227,5.5,6,9.889,6a8.667,8.667,0,0,0,3.7-.864L14.07,19.332A4.09,4.09,0,0,1,12.522,19.719Z" transform="translate(-2.252 -9.191)" fill="#c9c9c9"/>
      <path id="Path_340" data-name="Path 340" d="M25.814,14.807a.706.706,0,0,0,.023-.932c-2.354-2.858-5.617-6-9.925-6a8.426,8.426,0,0,0-3.691.855L14.187,10.7a3.966,3.966,0,0,1,1.544-.387,4.047,4.047,0,0,1,3.848,5.779L21.988,18.5A29.774,29.774,0,0,0,25.814,14.807Z" transform="translate(-5.839 -7.875)" fill="#c9c9c9"/>
      <path id="Path_341" data-name="Path 341" d="M13.509,17.75A2.892,2.892,0,0,0,16.161,20.4a2.814,2.814,0,0,0,1.053-.117l-3.592-3.592A2.944,2.944,0,0,0,13.509,17.75Z" transform="translate(-6.3 -11.048)" fill="#c9c9c9"/>
      <path id="Path_342" data-name="Path 342" d="M21.959,17.9c0-.059,0-.117,0-.176a2,2,0,0,1-.819.176c-.05,0-.095,0-.14,0l.837.842A2.878,2.878,0,0,0,21.959,17.9Z" transform="translate(-8.997 -11.42)" fill="#c9c9c9"/>
      <path id="Path_343" data-name="Path 343" d="M17.532,14.265a2.115,2.115,0,0,1,.14-.761c-.045,0-.09,0-.14,0a2.848,2.848,0,0,0-.833.126l.842.842C17.536,14.4,17.532,14.333,17.532,14.265Z" transform="translate(-7.451 -9.899)" fill="#c9c9c9"/>
    </g>
  </g>
</svg>
