<svg xmlns="http://www.w3.org/2000/svg" width="40" height="31" viewBox="0 0 40 31">
  <g id="iconriwayataktif" transform="translate(-168 -599)">
    <text id="Riwayat" transform="translate(188 627)" fill="#020e8a" font-size="10" font-family="ShipporiMinchoB1-Medium, Shippori Mincho B1" font-weight="500"><tspan x="-19.565" y="0">Riwayat</tspan></text>
    <g id="medical-history" transform="translate(122 599)">
      <path id="Path_598" data-name="Path 598" d="M73.7,1.16h-1.6V2.433a1.063,1.063,0,0,1-1.166.907H61.061a1.063,1.063,0,0,1-1.166-.907V1.16H58.3A1.183,1.183,0,0,0,57,2.17V16.991A1.183,1.183,0,0,0,58.3,18H73.7A1.183,1.183,0,0,0,75,16.991V2.17A1.183,1.183,0,0,0,73.7,1.16ZM62.02,14.309H60.573a.618.618,0,0,1-.678-.527.618.618,0,0,1,.678-.527H62.02a.618.618,0,0,1,.678.527A.618.618,0,0,1,62.02,14.309Zm0-2.25H60.573a.618.618,0,0,1-.678-.527A.618.618,0,0,1,60.573,11H62.02a.618.618,0,0,1,.678.527A.618.618,0,0,1,62.02,12.059Zm.769-4.746a.618.618,0,0,1,.678-.527h1.854V5.344a.7.7,0,0,1,1.357,0V6.785h1.854a.618.618,0,0,1,.678.527.618.618,0,0,1-.678.527H66.678V9.281a.7.7,0,0,1-1.357,0V7.84H63.467A.618.618,0,0,1,62.789,7.313Zm8.638,7H65.276a.618.618,0,0,1-.678-.527.618.618,0,0,1,.678-.527h6.151a.618.618,0,0,1,.678.527A.618.618,0,0,1,71.427,14.309Zm0-2.25H65.276a.618.618,0,0,1-.678-.527A.618.618,0,0,1,65.276,11h6.151a.618.618,0,0,1,.678.527A.618.618,0,0,1,71.427,12.059ZM70.749,0h-9.5V2.285h9.5Z" fill="#020e8a"/>
    </g>
  </g>
</svg>
