<svg xmlns="http://www.w3.org/2000/svg" width="20" height="20" viewBox="0 0 20 20">
  <g id="iconedit" transform="translate(-31 2)">
    <g id="Group_182" data-name="Group 182" transform="translate(36 -2)">
      <g id="Group_181" data-name="Group 181" transform="translate(0)">
        <path id="Path_298" data-name="Path 298" d="M126,0a5,5,0,1,0,5,5A5.006,5.006,0,0,0,126,0Z" transform="translate(-121)" fill="#020e8a"/>
      </g>
    </g>
    <g id="Group_184" data-name="Group 184" transform="translate(31 9)">
      <g id="Group_183" data-name="Group 183">
        <path id="Path_299" data-name="Path 299" d="M48.465,302.471A8.756,8.756,0,0,0,42.333,300H39.667a8.756,8.756,0,0,0-6.132,2.471A8.165,8.165,0,0,0,31,308.363a.652.652,0,0,0,.667.637H50.333a.652.652,0,0,0,.667-.637A8.165,8.165,0,0,0,48.465,302.471Z" transform="translate(-31 -300)" fill="#020e8a"/>
      </g>
    </g>
  </g>
</svg>
