<svg xmlns="http://www.w3.org/2000/svg" xmlns:xlink="http://www.w3.org/1999/xlink" width="30" height="30" viewBox="0 0 30 30">
  <defs>
    <linearGradient id="linear-gradient" x1="0.553" y1="0.918" x2="0.46" y2="0.199" gradientUnits="objectBoundingBox">
      <stop offset="0" stop-color="#d2deff" stop-opacity="0"/>
      <stop offset="1" stop-color="#b7c5ff"/>
    </linearGradient>
  </defs>
  <g id="iconalamatklinik" transform="translate(0 -17.98)">
    <path id="Path_450" data-name="Path 450" d="M29.406,54.016c-1.31-3.942-5.345-6.306-8.763-4.742-4.018,1.839-2.535,9.094-6.151,10.608-1.914.8-4.744-2.193-6.678-2.652C4.25,56.384,1.024,59.358.23,63.476c-.81,4.2.489,9.813,4.393,10.953,4.649,1.358,7.071-3.585,10.972-5,4-1.457,8.453,1.983,11.766-2.2C29.808,64.132,30.7,57.919,29.406,54.016Z" transform="translate(0 -29.022)" fill="url(#linear-gradient)"/>
    <g id="Group_373" data-name="Group 373" transform="translate(2.681 17.98)">
      <path id="Path_451" data-name="Path 451" d="M64.82,76.69l2.125-5.133a32.183,32.183,0,0,1,2.491-4.774,8.591,8.591,0,0,0,1.291-4.569c0-4.543-3.421-8.211-7.6-8.085-3.97.12-7.162,3.7-7.178,8.051a8.591,8.591,0,0,0,1.311,4.634,31.5,31.5,0,0,1,2.495,4.8l2.1,5.077c-5.945.163-10.549,1.292-10.549,2.661,0,1.481,5.386,2.682,12.029,2.682s12.029-1.2,12.029-2.682C75.368,77.982,70.765,76.853,64.82,76.69Z" transform="translate(-51.021 -52.033)" fill="#2626bc" opacity="0.1"/>
      <g id="Group_371" data-name="Group 371" transform="translate(0 0)">
        <ellipse id="Ellipse_56" data-name="Ellipse 56" cx="12.029" cy="2.413" rx="12.029" ry="2.413" transform="translate(0.289 23.726)" fill="#6583fe"/>
        <g id="Group_367" data-name="Group 367" transform="translate(4.168 0.645)">
          <path id="Path_452" data-name="Path 452" d="M120.039,379.545v.561a.579.579,0,0,1-.474.569l-1.018.188a.579.579,0,0,0-.474.569v.534a.579.579,0,0,1-.579.579h-1.2a.579.579,0,0,1-.409-.17l-.528-.528a.579.579,0,0,0-.409-.17h-1.592a.579.579,0,0,1-.493-.275l-.72-1.165A43.51,43.51,0,0,1,120.039,379.545Z" transform="translate(-112.149 -356.462)" fill="#fff"/>
          <path id="Path_453" data-name="Path 453" d="M262.97,389.946c0,1.333-5.306,2.413-11.851,2.413h-.3l.489-1.057a.453.453,0,0,1,.411-.263H254.1a.453.453,0,0,0,.415-.273l.127-.294a.453.453,0,0,1,.415-.272h1a.452.452,0,0,1,.32.132l.239.238a.453.453,0,0,0,.32.132h.391a.453.453,0,0,0,.426-.3l.116-.321a.453.453,0,0,0-.232-.563l-.768-.363a.453.453,0,0,1,.1-.852l1.33-.28C261.136,388.466,262.97,389.163,262.97,389.946Z" transform="translate(-242.79 -364.452)" fill="#fff"/>
          <path id="Path_454" data-name="Path 454" d="M144.85,37.3c0-4.591-3.37-8.3-7.484-8.171-3.911.121-7.056,3.743-7.072,8.137a8.849,8.849,0,0,0,1.292,4.683,32.136,32.136,0,0,1,2.458,4.85l3,7.439a.555.555,0,0,0,1.055,0l3.024-7.5a32.833,32.833,0,0,1,2.454-4.825A8.85,8.85,0,0,0,144.85,37.3Z" transform="translate(-129.243 -29.126)" fill="#fff"/>
        </g>
        <path id="Path_455" data-name="Path 455" d="M69.991,48.629a9.145,9.145,0,0,0-2.277-.845A35.7,35.7,0,0,0,60.56,46.9L62.5,42.163A31.981,31.981,0,0,1,64.967,37.4a9.034,9.034,0,0,0,1.293-3.826A.319.319,0,0,0,66,33.213a.3.3,0,0,0-.325.286,8.34,8.34,0,0,1-1.194,3.532A32.639,32.639,0,0,0,61.967,41.9L58.9,49.374a.283.283,0,0,1-.535,0l-3.045-7.423a32.292,32.292,0,0,0-2.52-4.891,8.362,8.362,0,0,1-1.258-4.487,8.227,8.227,0,0,1,2.022-5.433,6.753,6.753,0,0,1,4.868-2.363A6.683,6.683,0,0,1,63.287,26.7a8.088,8.088,0,0,1,2.385,4.975.3.3,0,0,0,.326.284.319.319,0,0,0,.257-.36,8.759,8.759,0,0,0-2.582-5.388,7.232,7.232,0,0,0-5.259-2.081,7.313,7.313,0,0,0-5.272,2.559,8.909,8.909,0,0,0-2.189,5.884,9.056,9.056,0,0,0,1.363,4.859,31.629,31.629,0,0,1,2.468,4.789l3.045,7.423a.849.849,0,0,0,1.605,0l.864-2.107a35.662,35.662,0,0,1,7.284.881c2.7.688,2.78,1.395,2.78,1.473,0,.217-.291.5-.779.76a10.579,10.579,0,0,1-2.508.834,40.4,40.4,0,0,1-8.444.785,40.4,40.4,0,0,1-8.444-.785C47.592,50.9,46.9,50.207,46.9,49.889s.605-.853,2.311-1.346a30.833,30.833,0,0,1,6.32-.943.314.314,0,0,0,.277-.342.306.306,0,0,0-.309-.306c-1.534.092-9.187.668-9.187,2.936,0,.919,1.264,1.669,3.757,2.23a40.936,40.936,0,0,0,8.561.8,40.932,40.932,0,0,0,8.561-.8c2.493-.561,3.757-1.311,3.757-2.23C70.949,49.424,70.627,49,69.991,48.629Z" transform="translate(-46.312 -23.77)" fill="#2626bc"/>
        <g id="Group_370" data-name="Group 370" transform="translate(4.312)">
          <circle id="Ellipse_57" data-name="Ellipse 57" cx="5.642" cy="5.642" r="5.642" transform="translate(0 7.978) rotate(-45)" fill="#6583fe"/>
          <g id="Group_369" data-name="Group 369" transform="translate(4.465 4.436)">
            <g id="Group_368" data-name="Group 368">
              <path id="Path_456" data-name="Path 456" d="M201.524,101.683h-6.287a.4.4,0,0,1-.4-.4V95a.4.4,0,0,1,.4-.4h6.287a.4.4,0,0,1,.4.4v6.287A.4.4,0,0,1,201.524,101.683Z" transform="translate(-194.839 -94.601)" fill="#fff"/>
              <path id="Path_457" data-name="Path 457" d="M0,0H5.094V5.094H0Z" transform="translate(6.088 0.994) rotate(90)" fill="#6583fe"/>
            </g>
            <path id="Path_458" data-name="Path 458" d="M0,0H.994V7.74H0Z" transform="translate(5.986 0.393) rotate(45)" fill="#fff"/>
          </g>
        </g>
      </g>
      <g id="Group_372" data-name="Group 372" transform="translate(1.767 3.346)">
        <path id="Path_459" data-name="Path 459" d="M425.876,351.9a.289.289,0,0,1-.2-.085l-.345-.345-.345.345a.289.289,0,0,1-.409-.409l.55-.55a.29.29,0,0,1,.409,0l.55.55a.29.29,0,0,1-.2.494Z" transform="translate(-404.001 -334.852)" fill="#6583fe"/>
        <path id="Path_460" data-name="Path 460" d="M360.915,327.544a.839.839,0,1,1,.594-.245A.837.837,0,0,1,360.915,327.544Zm0-1.1a.26.26,0,1,0,.184.076A.26.26,0,0,0,360.915,326.445Z" transform="translate(-343.386 -311.386)" fill="#6583fe"/>
        <path id="Path_461" data-name="Path 461" d="M87.174,118.672a.839.839,0,1,1,.594-.245A.837.837,0,0,1,87.174,118.672Zm0-1.1a.26.26,0,1,0,.184.076A.26.26,0,0,0,87.174,117.573Z" transform="translate(-85.784 -114.608)" fill="#6583fe"/>
        <path id="Path_462" data-name="Path 462" d="M78.217,165.54a.289.289,0,0,1-.2-.085l-.345-.345-.345.345a.289.289,0,1,1-.409-.409l.55-.55a.289.289,0,0,1,.409,0l.55.55a.289.289,0,0,1-.2.494Z" transform="translate(-76.827 -159.279)" fill="#6583fe"/>
        <path id="Path_463" data-name="Path 463" d="M392.52,76.9a.289.289,0,0,1-.2-.085l-.345-.345-.345.345a.289.289,0,0,1-.409-.409l.55-.55a.29.29,0,0,1,.409,0l.55.55a.289.289,0,0,1-.2.494Z" transform="translate(-372.577 -75.773)" fill="#6583fe"/>
      </g>
    </g>
  </g>
</svg>
