<svg xmlns="http://www.w3.org/2000/svg" width="20" height="20" viewBox="0 0 20 20">
  <g id="iconlaporanprofil" transform="translate(-64)">
    <g id="Group_229" data-name="Group 229" transform="translate(70.487)">
      <g id="Group_228" data-name="Group 228" transform="translate(0)">
        <path id="Path_344" data-name="Path 344" d="M166.44,1.171h-1.272a1.757,1.757,0,0,0-3.312,0h-1.27a.586.586,0,0,0-.585.585V2.927a.586.586,0,0,0,.585.585h5.854a.586.586,0,0,0,.585-.585V1.756A.586.586,0,0,0,166.44,1.171Z" transform="translate(-160)" fill="#020e8a"/>
      </g>
    </g>
    <g id="Group_231" data-name="Group 231" transform="translate(64 2.342)">
      <g id="Group_230" data-name="Group 230" transform="translate(0)">
        <path id="Path_345" data-name="Path 345" d="M82.333,64H80.667v.631a2.264,2.264,0,0,1-2.5,1.892H69.833a2.264,2.264,0,0,1-2.5-1.892V64H65.667A1.51,1.51,0,0,0,64,65.261V80.4c0,.708.732,1.261,1.667,1.261H82.333C83.268,81.658,84,81.1,84,80.4V65.261C84,64.554,83.268,64,82.333,64Zm-7.5,3.848a3.8,3.8,0,0,1,3.248,2.458H74.833Zm-1.667,0v3.089a.754.754,0,0,0,.833.631h4.082C77.695,73.006,76.013,74.09,74,74.09c-2.3,0-4.167-1.415-4.167-3.153C69.833,69.415,71.267,68.141,73.167,67.848Zm1.667,11.287H68.167a.655.655,0,1,1,0-1.261h6.667a.655.655,0,1,1,0,1.261Zm5-2.523H68.167a.655.655,0,1,1,0-1.261H79.833a.655.655,0,1,1,0,1.261Z" transform="translate(-64 -64)" fill="#020e8a"/>
      </g>
    </g>
  </g>
</svg>
