<svg xmlns="http://www.w3.org/2000/svg" width="20" height="20" viewBox="0 0 20 20">
  <g id="icondokter" transform="translate(-35.007)">
    <g id="Group_555" data-name="Group 555" transform="translate(40.416)">
      <g id="Group_554" data-name="Group 554" transform="translate(0)">
        <path id="Path_606" data-name="Path 606" d="M156.778,0c-2.467,0-4.474,1.523-4.474,3.4V5.154c0,1.872,2.007,3.4,4.474,3.4s4.474-1.523,4.474-3.4V3.4C161.252,1.523,159.245,0,156.778,0Z" transform="translate(-152.304 0)" fill="#020e8a"/>
      </g>
    </g>
    <g id="Group_557" data-name="Group 557" transform="translate(35.007 8.55)">
      <g id="Group_556" data-name="Group 556">
        <path id="Path_607" data-name="Path 607" d="M53.982,267.256a11.558,11.558,0,0,0-6.519-5.352.175.175,0,0,0-.181.046,18.96,18.96,0,0,1-3.272,2.584,23.6,23.6,0,0,1-3.28-2.584.176.176,0,0,0-.181-.046,11.555,11.555,0,0,0-6.518,5.352.194.194,0,0,0,0,.19,11.383,11.383,0,0,0,19.95,0A.194.194,0,0,0,53.982,267.256Zm-3.823,1.4a.192.192,0,0,1-.195.183H48.739a.214.214,0,0,0-.209.193v1.316c0,.1-.053.183-.153.183h-1.1a.191.191,0,0,1-.194-.183v-1.316a.179.179,0,0,0-.168-.193H45.637a.182.182,0,0,1-.182-.183v-1.133a.185.185,0,0,1,.182-.187h1.278a.175.175,0,0,0,.168-.189v-1.317a.194.194,0,0,1,.194-.185h1.088a.17.17,0,0,1,.165.185v1.321a.2.2,0,0,0,.2.184h1.237a.2.2,0,0,1,.195.191Z" transform="translate(-34.007 -261.896)" fill="#020e8a"/>
      </g>
    </g>
  </g>
</svg>
