<svg xmlns="http://www.w3.org/2000/svg" width="20.385" height="22.346" viewBox="0 0 20.385 22.346">
  <path id="iconalamat" d="M18.357,1.928c-5.524,0-10,3.078-10,6.875,0,6.875,10,15.125,10,15.125s10-8.25,10-15.125c0-3.8-4.478-6.875-10-6.875Zm0,11.086c-3.383,0-6.126-1.885-6.126-4.211s2.743-4.211,6.126-4.211S24.483,6.477,24.483,8.8,21.74,13.014,18.357,13.014ZM14.481,8.8c0-1.471,1.735-2.664,3.876-2.664S22.232,7.332,22.232,8.8s-1.735,2.664-3.876,2.664S14.481,10.274,14.481,8.8Z" transform="matrix(1, -0.017, 0.017, 1, -8.387, -1.433)" fill="#020e8a"/>
</svg>
