<svg xmlns="http://www.w3.org/2000/svg" xmlns:xlink="http://www.w3.org/1999/xlink" width="30" height="30" viewBox="0 0 30 30">
  <defs>
    <linearGradient id="linear-gradient" y1="0.5" x2="1" y2="0.5" gradientUnits="objectBoundingBox">
      <stop offset="0" stop-color="#d2deff" stop-opacity="0"/>
      <stop offset="1" stop-color="#b7c5ff"/>
    </linearGradient>
  </defs>
  <g id="iconjadwaldokter" transform="translate(0 -18.018)">
    <path id="Path_384" data-name="Path 384" d="M1.192,25.3a12.745,12.745,0,0,0-.524,9.471c.9,2.354,2.693,4.564,5.046,4.841.865.1,1.749-.065,2.606.1,2.945.577,4.04,4.481,6.329,6.556a7.288,7.288,0,0,0,5.87,1.677,12.388,12.388,0,0,0,5.706-2.573,9.643,9.643,0,0,0,3.267-3.889c1.391-3.393-.246-7.469-2.788-9.974a20.2,20.2,0,0,1-2.336-2.378A3.873,3.873,0,0,1,23.6,25.9c.252-.881.929-1.564,1.185-2.443a3.532,3.532,0,0,0-1.043-3.379A6.806,6.806,0,0,0,20.6,18.527c-4.752-1.215-15.165-.726-19.4,6.77Z" transform="translate(0)" fill="url(#linear-gradient)"/>
    <g id="Group_341" data-name="Group 341" transform="translate(4.125 18.867)">
      <g id="Group_320" data-name="Group 320" transform="translate(0.298 0.584)" opacity="0.1">
        <g id="Group_319" data-name="Group 319" transform="translate(9.812 3.421)">
          <path id="Path_385" data-name="Path 385" d="M243.73,115.183h1.109a.3.3,0,0,0,0-.6H243.73a.3.3,0,1,0,0,.6Z" transform="translate(-243.432 -114.586)" fill="#2626bc"/>
          <path id="Path_386" data-name="Path 386" d="M243.73,133.565h3.5a.3.3,0,1,0,0-.6h-3.5a.3.3,0,1,0,0,.6Z" transform="translate(-243.432 -131.871)" fill="#2626bc"/>
          <path id="Path_387" data-name="Path 387" d="M243.73,151.947h3.5a.3.3,0,1,0,0-.6h-3.5a.3.3,0,1,0,0,.6Z" transform="translate(-243.432 -149.156)" fill="#2626bc"/>
        </g>
        <path id="Path_388" data-name="Path 388" d="M96.279,72.318H93.421a4.2,4.2,0,0,0,1.9-3.583,3.77,3.77,0,1,0-7.507,0,4.2,4.2,0,0,0,1.9,3.583H89.67a.613.613,0,0,0-.583.639v4.081a.613.613,0,0,0,.583.639H91v3.245a1.672,1.672,0,0,1-1.641,1.748,1.71,1.71,0,0,1-1.545-1.785V77.093a3.05,3.05,0,0,0-2.958-3.183,3.1,3.1,0,0,0-2.845,3.237v4a1.463,1.463,0,0,1-1.362,1.521,1.486,1.486,0,0,1-1.409-1.556V74.768a1.988,1.988,0,0,1,1.042-1.784l1.329-.67a2.986,2.986,0,0,0,1.565-2.68V65.161a.307.307,0,0,0-.291-.32V60.015a1.658,1.658,0,0,0-.993-1.554l-.673-.268a.815.815,0,0,0-.767-.63h-.219a.292.292,0,1,0-.581.014V59.3a.292.292,0,1,0,.581.014h.219a.8.8,0,0,0,.708-.469l.534.213a1.017,1.017,0,0,1,.609.953v4.827h0a.307.307,0,0,0-.291.32v4.473a1.691,1.691,0,0,1-.886,1.517l-1.329.671a3.021,3.021,0,0,0-1.138,1.015,3.023,3.023,0,0,0-1.138-1.016l-1.329-.67a1.687,1.687,0,0,1-.886-1.518V65.161a.306.306,0,0,0-.291-.32V60.015a1.016,1.016,0,0,1,.609-.953l.525-.209a.794.794,0,0,0,.706.466h.219a.292.292,0,1,0,.581-.014V57.577a.292.292,0,1,0-.581-.014h-.219a.816.816,0,0,0-.768.635l-.661.263a1.658,1.658,0,0,0-.993,1.554v4.827a.307.307,0,0,0-.291.32v4.473a2.979,2.979,0,0,0,1.565,2.68l1.329.67a1.989,1.989,0,0,1,1.042,1.784V81.15a2.692,2.692,0,0,0,2.507,2.8A2.722,2.722,0,0,0,83.171,81.1V77.093a1.823,1.823,0,0,1,1.789-1.9,1.863,1.863,0,0,1,1.684,1.945v3.789a2.9,2.9,0,0,0,2.812,3.027,2.945,2.945,0,0,0,2.7-3.077V77.678h4.119a.613.613,0,0,0,.583-.639V72.958A.613.613,0,0,0,96.279,72.318Z" transform="translate(-74.133 -57.257)" fill="#2626bc"/>
      </g>
      <g id="Group_325" data-name="Group 325" transform="translate(15.064 15.106)">
        <path id="Path_389" data-name="Path 389" d="M338.189,272.82h-6.77a.6.6,0,0,1-.6-.6v-3.809a.6.6,0,0,1,.6-.6h6.77a.6.6,0,0,1,.6.6v3.809A.6.6,0,0,1,338.189,272.82Z" transform="translate(-330.822 -267.818)" fill="#6583fe"/>
        <g id="Group_324" data-name="Group 324" transform="translate(2.429 1.013)">
          <g id="Group_321" data-name="Group 321" transform="translate(2.387)">
            <path id="Path_390" data-name="Path 390" d="M412.928,285.386h-1.109a.3.3,0,1,1,0-.6h1.109a.3.3,0,0,1,0,.6Z" transform="translate(-411.521 -284.789)" fill="#00c"/>
          </g>
          <g id="Group_322" data-name="Group 322" transform="translate(0 1.097)">
            <path id="Path_391" data-name="Path 391" d="M375.315,303.767h-3.5a.3.3,0,1,1,0-.6h3.5a.3.3,0,0,1,0,.6Z" transform="translate(-371.521 -303.17)" fill="#00c"/>
          </g>
          <g id="Group_323" data-name="Group 323" transform="translate(0 2.194)">
            <path id="Path_392" data-name="Path 392" d="M375.315,322.149h-3.5a.3.3,0,1,1,0-.6h3.5a.3.3,0,0,1,0,.6Z" transform="translate(-371.521 -321.552)" fill="#00c"/>
          </g>
        </g>
      </g>
      <g id="Group_330" data-name="Group 330" transform="translate(0.299 0.584)">
        <g id="Group_326" data-name="Group 326" transform="translate(2.258)">
          <path id="Path_393" data-name="Path 393" d="M113.018,43.082H112.5a.521.521,0,1,1,0-1.042h.521Z" transform="translate(-111.976 -42.04)" fill="#fff"/>
          <path id="Path_394" data-name="Path 394" d="M173.79,43.082h.521a.521.521,0,1,0,0-1.042h-.521Z" transform="translate(-170.102 -42.04)" fill="#fff"/>
        </g>
        <g id="Group_327" data-name="Group 327" transform="translate(0 7.262)">
          <path id="Path_395" data-name="Path 395" d="M75.329,151.179v4.175a1.559,1.559,0,0,0,.908,1.416l1.361.625a3.034,3.034,0,0,1,1.763,2.749v.909a.61.61,0,0,1-.557.616.6.6,0,0,1-.636-.6v-.929A1.837,1.837,0,0,0,77.1,158.48l-1.361-.625a2.752,2.752,0,0,1-1.6-2.5v-4.175a.3.3,0,0,1,.3-.3h.6A.3.3,0,0,1,75.329,151.179Z" transform="translate(-74.136 -150.881)" fill="#6583fe"/>
        </g>
        <g id="Group_328" data-name="Group 328" transform="translate(3.756 8.094)">
          <path id="Path_396" data-name="Path 396" d="M156.144,155.861v9.982a2.825,2.825,0,1,1-5.65.047v-3.536a1.8,1.8,0,0,0-1.724-1.815,1.78,1.78,0,0,0-1.832,1.778v3.74a2.65,2.65,0,0,1-2.658,2.658,2.616,2.616,0,0,1-2.568-2.612v-5.956a3.032,3.032,0,0,1,1.763-2.749l1.362-.626a1.562,1.562,0,0,0,.908-1.416v-4.175a.3.3,0,0,1,.3-.3h.6a.3.3,0,0,1,.3.3v4.175a2.759,2.759,0,0,1-1.6,2.5l-1.361.625a1.836,1.836,0,0,0-1.068,1.665v5.924a1.446,1.446,0,0,0,1.443,1.452,1.421,1.421,0,0,0,1.4-1.42v-3.736a2.972,2.972,0,1,1,5.944-.05v3.539a1.655,1.655,0,0,0,1.582,1.666,1.634,1.634,0,0,0,1.681-1.631V155.882a.61.61,0,0,1,.557-.616A.6.6,0,0,1,156.144,155.861Z" transform="translate(-141.712 -150.883)" fill="#fff"/>
        </g>
        <g id="Group_329" data-name="Group 329" transform="translate(12.686 6.097)">
          <circle id="Ellipse_52" data-name="Ellipse 52" cx="3.844" cy="3.844" r="3.844" transform="translate(0 7.481) rotate(-76.7)" fill="#fff"/>
          <circle id="Ellipse_53" data-name="Ellipse 53" cx="1.864" cy="1.864" r="1.864" transform="translate(2.758 2.752)" fill="#00c"/>
          <circle id="Ellipse_54" data-name="Ellipse 54" cx="1.318" cy="1.318" r="1.318" transform="translate(3.304 3.298)" fill="#6583fe"/>
        </g>
      </g>
      <g id="Group_331" data-name="Group 331" transform="translate(0 0)">
        <path id="Path_397" data-name="Path 397" d="M91.583,46.888H89.611a4.579,4.579,0,0,0,1.307-3.238,4.062,4.062,0,1,0-8.094,0,4.546,4.546,0,0,0,1.568,3.478.986.986,0,0,0-.3.712v4.05a.917.917,0,0,0,.874.952H86v2.9a1.47,1.47,0,0,1-.4,1.017,1.24,1.24,0,0,1-.946.4A1.4,1.4,0,0,1,83.4,55.708V51.945a3.609,3.609,0,0,0-.958-2.481,3.035,3.035,0,0,0-2.3-1A3.4,3.4,0,0,0,77.01,52v3.973a1.154,1.154,0,0,1-1.076,1.192,1.026,1.026,0,0,1-.771-.342,1.306,1.306,0,0,1-.343-.884v-6.3a1.65,1.65,0,0,1,.873-1.482l1.33-.665a3.282,3.282,0,0,0,1.736-2.948V40.1a.611.611,0,0,0-.583-.635V35a1.645,1.645,0,0,0-.993-1.542l-.674-.266a.814.814,0,0,0-.768-.626h-.219a.292.292,0,1,0-.582.014v1.715a.292.292,0,1,0,.582.014h.219a.8.8,0,0,0,.708-.466l.534.211a1.008,1.008,0,0,1,.609.946v4.473a.611.611,0,0,0-.583.635v1.139a.293.293,0,1,0,.583,0V40.1h.583v4.44a2.639,2.639,0,0,1-1.4,2.371l-1.33.665a2.292,2.292,0,0,0-1.212,2.059v6.3a1.973,1.973,0,0,0,.517,1.337,1.581,1.581,0,0,0,1.19.524,1.768,1.768,0,0,0,1.649-1.826V52a2.785,2.785,0,0,1,2.561-2.9,2.477,2.477,0,0,1,1.879.814,2.95,2.95,0,0,1,.784,2.028v3.764A2.016,2.016,0,0,0,84.645,57.8H84.7a1.794,1.794,0,0,0,1.312-.58,2.127,2.127,0,0,0,.573-1.472v-7.7c.094.007.188.012.283.012s.2-.005.3-.013v7.653a2.632,2.632,0,0,1-2.42,2.737,2.354,2.354,0,0,1-1.775-.769,2.788,2.788,0,0,1-.741-1.917v-3.76a2.17,2.17,0,0,0-1.968-2.248,1.927,1.927,0,0,0-1.474.623,2.29,2.29,0,0,0-.616,1.584v3.977a2.664,2.664,0,0,1-.7,1.8,2.126,2.126,0,0,1-1.6.706,2.383,2.383,0,0,1-2.222-2.461V49.637A2.934,2.934,0,0,1,75.206,47l1.33-.665a2,2,0,0,0,1.057-1.794V43.088a.293.293,0,1,0-.583,0v1.454a1.355,1.355,0,0,1-.717,1.218l-1.33.665a3.26,3.26,0,0,0-1.018.8,3.278,3.278,0,0,0-1.017-.8L71.6,45.76a1.356,1.356,0,0,1-.717-1.218V40.1a.611.611,0,0,0-.583-.635V35a1.008,1.008,0,0,1,.609-.946l.525-.207a.8.8,0,0,0,.706.462h.219a.292.292,0,1,0,.582-.014V32.575a.292.292,0,1,0-.582-.014h-.219a.815.815,0,0,0-.769.63l-.662.261A1.645,1.645,0,0,0,69.715,35v4.473a.611.611,0,0,0-.583.635v4.44a3.281,3.281,0,0,0,1.736,2.948l1.33.665a1.65,1.65,0,0,1,.873,1.482v6.334a3,3,0,0,0,2.795,3.1,2.686,2.686,0,0,0,2.021-.888,3.332,3.332,0,0,0,.872-2.257V51.945a1.632,1.632,0,0,1,.44-1.129,1.374,1.374,0,0,1,1.05-.444,1.553,1.553,0,0,1,1.4,1.613v3.76a3.447,3.447,0,0,0,.915,2.37,2.906,2.906,0,0,0,2.135.952h.059a3.247,3.247,0,0,0,2.992-3.371V47.948a3.822,3.822,0,0,0,1.046-.426h2.784a.306.306,0,0,1,.291.317v4.05a.306.306,0,0,1-.291.317H89.158a.318.318,0,0,0,0,.635h2.425a.917.917,0,0,0,.874-.952V47.84A.916.916,0,0,0,91.583,46.888ZM75.742,33.67h-.218V33.2h.218a.238.238,0,0,1,0,.474Zm-3.6-.474h.218v.474h-.218a.238.238,0,0,1,0-.474Zm.3,14.382-1.33-.665a2.64,2.64,0,0,1-1.4-2.371V40.1H70.3v4.44a2,2,0,0,0,1.057,1.794l1.33.665a2.7,2.7,0,0,1,.9.734,3.687,3.687,0,0,0-.292.627A2.137,2.137,0,0,0,72.442,47.578ZM86,52.208H84.97a.306.306,0,0,1-.291-.317V47.84a.307.307,0,0,1,.27-.315A3.818,3.818,0,0,0,86,47.953Zm-2.6-8.558a3.477,3.477,0,1,1,3.464,3.771A3.631,3.631,0,0,1,83.407,43.65Z" transform="translate(-69.132 -32.258)" fill="#00c"/>
        <path id="Path_398" data-name="Path 398" d="M243.73,90.183h1.109a.3.3,0,0,0,0-.6H243.73a.3.3,0,1,0,0,.6Z" transform="translate(-233.29 -86.165)" fill="#00c"/>
        <path id="Path_399" data-name="Path 399" d="M243.73,108.565h3.5a.3.3,0,1,0,0-.6h-3.5a.3.3,0,1,0,0,.6Z" transform="translate(-233.321 -103.157)" fill="#00c"/>
        <path id="Path_400" data-name="Path 400" d="M243.73,126.947h3.5a.3.3,0,1,0,0-.6h-3.5a.3.3,0,1,0,0,.6Z" transform="translate(-233.321 -120.371)" fill="#00c"/>
      </g>
      <g id="Group_340" data-name="Group 340" transform="translate(0.486 1.985)">
        <path id="Path_401" data-name="Path 401" d="M368.224,90.439a.3.3,0,0,1-.3-.3.378.378,0,0,0-.378-.378.3.3,0,0,1,0-.6.378.378,0,0,0,.378-.378.3.3,0,0,1,.6,0,.378.378,0,0,0,.378.378.3.3,0,0,1,0,.6.378.378,0,0,0-.378.378A.3.3,0,0,1,368.224,90.439Z" transform="translate(-350.395 -87.12)" fill="#6583fe"/>
        <path id="Path_402" data-name="Path 402" d="M78.246,348.6a.3.3,0,0,1-.3-.3.378.378,0,0,0-.378-.378.3.3,0,1,1,0-.6.378.378,0,0,0,.378-.378.3.3,0,0,1,.6,0,.378.378,0,0,0,.378.378.3.3,0,0,1,0,.6.378.378,0,0,0-.378.378A.3.3,0,0,1,78.246,348.6Z" transform="translate(-77.271 -329.873)" fill="#6583fe"/>
        <path id="Path_403" data-name="Path 403" d="M406.163,67.472a.3.3,0,0,1-.3-.3.378.378,0,0,0-.378-.378.3.3,0,1,1,0-.6.378.378,0,0,0,.378-.378.3.3,0,1,1,.6,0,.378.378,0,0,0,.378.378.3.3,0,0,1,0,.6.378.378,0,0,0-.378.378A.3.3,0,0,1,406.163,67.472Z" transform="translate(-386.172 -65.523)" fill="#6583fe"/>
        <g id="Group_335" data-name="Group 335" transform="translate(20.59 3.191)">
          <g id="Group_332" data-name="Group 332" transform="translate(0.722)">
            <path id="Path_404" data-name="Path 404" d="M443.964,119.607a.3.3,0,0,1-.3-.3V119.3a.3.3,0,1,1,.6,0v.009A.3.3,0,0,1,443.964,119.607Z" transform="translate(-443.666 -119.001)" fill="#6583fe"/>
            <path id="Path_405" data-name="Path 405" d="M443.964,147.392a.3.3,0,0,1-.3-.3v-.009a.3.3,0,1,1,.6,0v.009A.3.3,0,0,1,443.964,147.392Z" transform="translate(-443.666 -145.128)" fill="#6583fe"/>
          </g>
          <g id="Group_333" data-name="Group 333" transform="translate(0 0.417)">
            <path id="Path_406" data-name="Path 406" d="M431.876,126.584a.3.3,0,0,1-.149-.04l-.008,0a.3.3,0,1,1,.3-.516l.008,0a.3.3,0,0,1-.15.557Z" transform="translate(-431.57 -125.983)" fill="#6583fe"/>
            <path id="Path_407" data-name="Path 407" d="M455.938,140.476a.3.3,0,0,1-.149-.04l-.008,0a.3.3,0,1,1,.3-.516l.008,0a.3.3,0,0,1-.15.557Z" transform="translate(-454.196 -139.046)" fill="#6583fe"/>
          </g>
          <g id="Group_334" data-name="Group 334" transform="translate(0 0.417)">
            <path id="Path_408" data-name="Path 408" d="M431.869,140.476a.3.3,0,0,1-.15-.557l.008,0a.3.3,0,1,1,.3.516l-.008,0A.3.3,0,0,1,431.869,140.476Z" transform="translate(-431.57 -139.046)" fill="#6583fe"/>
            <path id="Path_409" data-name="Path 409" d="M455.931,126.584a.3.3,0,0,1-.15-.557l.008,0a.3.3,0,1,1,.3.516l-.008,0A.3.3,0,0,1,455.931,126.584Z" transform="translate(-454.196 -125.983)" fill="#6583fe"/>
          </g>
        </g>
        <g id="Group_339" data-name="Group 339" transform="translate(3.914 2.774)">
          <g id="Group_336" data-name="Group 336" transform="translate(0.722)">
            <path id="Path_410" data-name="Path 410" d="M157.008,112.623a.3.3,0,0,1-.3-.3v-.009a.3.3,0,1,1,.6,0v.009A.3.3,0,0,1,157.008,112.623Z" transform="translate(-156.71 -112.017)" fill="#6583fe"/>
            <path id="Path_411" data-name="Path 411" d="M157.008,140.407a.3.3,0,0,1-.3-.3V140.1a.3.3,0,1,1,.6,0v.009A.3.3,0,0,1,157.008,140.407Z" transform="translate(-156.71 -138.143)" fill="#6583fe"/>
          </g>
          <g id="Group_337" data-name="Group 337" transform="translate(0 0.417)">
            <path id="Path_412" data-name="Path 412" d="M144.92,119.6a.3.3,0,0,1-.149-.04l-.008,0a.3.3,0,0,1,.3-.517l.008,0a.3.3,0,0,1-.149.557Z" transform="translate(-144.614 -119)" fill="#6583fe"/>
            <path id="Path_413" data-name="Path 413" d="M168.98,133.492a.3.3,0,0,1-.149-.04l-.008,0a.3.3,0,1,1,.3-.516l.008,0a.3.3,0,0,1-.15.557Z" transform="translate(-167.238 -132.062)" fill="#6583fe"/>
          </g>
          <g id="Group_338" data-name="Group 338" transform="translate(0 0.417)">
            <path id="Path_414" data-name="Path 414" d="M144.912,133.492a.3.3,0,0,1-.149-.557l.008,0a.3.3,0,0,1,.3.517l-.008,0A.3.3,0,0,1,144.912,133.492Z" transform="translate(-144.613 -132.062)" fill="#6583fe"/>
            <path id="Path_415" data-name="Path 415" d="M168.974,119.6a.3.3,0,0,1-.15-.557l.008,0a.3.3,0,1,1,.3.516l-.008,0A.3.3,0,0,1,168.974,119.6Z" transform="translate(-167.239 -118.999)" fill="#6583fe"/>
          </g>
        </g>
      </g>
    </g>
  </g>
</svg>
