<svg xmlns="http://www.w3.org/2000/svg" width="40" height="36" viewBox="0 0 40 36">
  <g id="iconcard" transform="translate(-16 -80)">
    <path id="Path_321" data-name="Path 321" d="M71.446,173.557l-1.994-.3L35.128,189.929l-.236,2.4a2.012,2.012,0,0,0,1.461,2.292L68.9,199.467a1.787,1.787,0,0,0,1.864-1.8l2.147-21.82A2.013,2.013,0,0,0,71.446,173.557Z" transform="translate(-16.92 -83.482)" fill="#53d8d8"/>
    <path id="Path_322" data-name="Path 322" d="M160.033,336.209a.631.631,0,0,1-.072,0L130.1,332.766a.623.623,0,0,1,.143-1.237l29.863,3.439a.623.623,0,0,1-.07,1.241Z" transform="translate(-111.581 -225.83)" fill="#46aaa7"/>
    <path id="Path_323" data-name="Path 323" d="M50.819,80.32H17.666A1.9,1.9,0,0,0,16,82.4V104.94a1.905,1.905,0,0,0,1.666,2.076H50.819a1.905,1.905,0,0,0,1.666-2.076V82.4A1.9,1.9,0,0,0,50.819,80.32Z" transform="translate(0 -0.287)" fill="#5fa8ed"/>
    <path id="Path_324" data-name="Path 324" d="M367,130.39a2.376,2.376,0,1,1-2.376,2.376A2.376,2.376,0,0,1,367,130.39Z" transform="translate(-319.622 -45.16)" fill="#f3ce7d"/>
    <path id="Path_325" data-name="Path 325" d="M76.952,115.493v1.833a.172.172,0,0,1-.172.172H73.941a.171.171,0,0,0-.171.171v2.839a.172.172,0,0,1-.172.172H71.764a.172.172,0,0,1-.172-.172V117.67a.171.171,0,0,0-.171-.171H68.582a.172.172,0,0,1-.172-.172v-1.833a.172.172,0,0,1,.172-.171h2.839a.172.172,0,0,0,.171-.172v-2.839a.172.172,0,0,1,.172-.171H73.6a.172.172,0,0,1,.172.171v2.839a.172.172,0,0,0,.171.172h2.839a.172.172,0,0,1,.172.171Z" transform="translate(-46.97 -28.804)" fill="#e87187"/>
    <path id="Path_326" data-name="Path 326" d="M19.114,104.653V82.109A2.1,2.1,0,0,1,21.189,80H18.076A2.1,2.1,0,0,0,16,82.109v22.544a2.118,2.118,0,0,0,2.076,2.125h3.114A2.118,2.118,0,0,1,19.114,104.653Z" transform="translate(0 0)" fill="#508bbc"/>
    <path id="Path_327" data-name="Path 327" d="M80.2,226.469H54.7a.435.435,0,0,1,0-.869H80.2a.435.435,0,1,1,0,.869Z" transform="translate(-31.823 -130.65)" fill="#437291"/>
    <path id="Path_328" data-name="Path 328" d="M80.2,271.135H54.7a.435.435,0,0,1,0-.869H80.2a.435.435,0,1,1,0,.869Z" transform="translate(-31.823 -170.746)" fill="#437291"/>
    <path id="Path_329" data-name="Path 329" d="M182.48,134.181h-7.658a.623.623,0,0,1,0-1.245h7.658a.623.623,0,1,1,0,1.245Z" transform="translate(-141.371 -47.442)" fill="#d4e1f4"/>
    <path id="Path_330" data-name="Path 330" d="M182.48,164.635h-7.658a.623.623,0,0,1,0-1.245h7.658a.623.623,0,1,1,0,1.245Z" transform="translate(-141.371 -74.858)" fill="#d4e1f4"/>
    <g id="Group_211" data-name="Group 211" transform="translate(16.817 82.143)">
      <path id="Path_331" data-name="Path 331" d="M34.135,102.14a.623.623,0,0,1-.623-.623v-.245a.623.623,0,1,1,1.245,0v.245A.623.623,0,0,1,34.135,102.14Z" transform="translate(-33.512 -100.649)" fill="#f4f8fc"/>
      <path id="Path_332" data-name="Path 332" d="M34.135,127.754a.623.623,0,0,1-.623-.623v-6.3a.623.623,0,1,1,1.245,0v6.3A.623.623,0,0,1,34.135,127.754Z" transform="translate(-33.512 -118.179)" fill="#f4f8fc"/>
    </g>
  </g>
</svg>
