<svg xmlns="http://www.w3.org/2000/svg" width="42" height="31" viewBox="0 0 42 31">
  <g id="iconberandaaktif" transform="translate(-41 -769)">
    <text id="Beranda" transform="translate(62 797)" fill="#020e8a" font-size="10" font-family="ShipporiMinchoB1-Medium, Shippori Mincho B1" font-weight="500"><tspan x="-20.345" y="0">Beranda</tspan></text>
    <path id="Icon_awesome-home" data-name="Icon awesome-home" d="M8.76,6.923,3,13.025v6.586a.585.585,0,0,0,.5.643L7,20.242a.586.586,0,0,0,.5-.643V15.753A.585.585,0,0,1,8,15.11h2a.585.585,0,0,1,.5.643V19.6a.747.747,0,0,0,.146.456.452.452,0,0,0,.354.189l3.5.012a.585.585,0,0,0,.5-.643v-6.59l-5.76-6.1A.318.318,0,0,0,8.76,6.923Zm9.1,4.147L15.248,8.3V2.736a.439.439,0,0,0-.375-.482h-1.75a.439.439,0,0,0-.375.482V5.653l-2.8-2.96a1.253,1.253,0,0,0-1.906,0L.135,11.07a.581.581,0,0,0-.05.679L.882,13a.36.36,0,0,0,.254.174.322.322,0,0,0,.275-.108L8.76,5.276a.318.318,0,0,1,.478,0l7.35,7.785A.321.321,0,0,0,17.117,13l.8-1.246A.581.581,0,0,0,18,11.4a.533.533,0,0,0-.137-.326Z" transform="translate(53.001 766.746)" fill="#020e8a"/>
  </g>
</svg>
