<svg xmlns="http://www.w3.org/2000/svg" width="20.162" height="12.949" viewBox="0 0 20.162 12.949">
  <g id="iconeye" transform="translate(-2.252 -7.875)">
    <path id="Path_336" data-name="Path 336" d="M12.322,7.875c-3.618,0-6.471,2.275-9.882,5.993a.71.71,0,0,0,0,.958c2.921,3.224,5.495,6,9.887,6,4.338,0,7.592-3.493,9.9-6.025a.7.7,0,0,0,.022-.931C19.891,11.013,16.628,7.875,12.322,7.875Zm.2,10.516a4.046,4.046,0,1,1,3.857-3.853A4.05,4.05,0,0,1,12.52,18.391Z" fill="#66a1ee"/>
    <path id="Path_337" data-name="Path 337" d="M16.378,14.264a2.112,2.112,0,0,1,.139-.76c-.045,0-.09,0-.139,0a2.877,2.877,0,1,0,2.877,2.877c0-.058,0-.117,0-.175a1.994,1.994,0,0,1-.818.175A2.087,2.087,0,0,1,16.378,14.264Z" transform="translate(-4.047 -2.028)" fill="#66a1ee"/>
  </g>
</svg>
