<svg xmlns="http://www.w3.org/2000/svg" width="19.063" height="20.657" viewBox="0 0 19.063 20.657">
  <path id="iconKataSandi" d="M23.43,10.525H22V8.206c0-2.617-2.5-4.792-5.641-4.831-3.181-.035-5.8,2.125-5.8,4.767v2.383H9.133A2.218,2.218,0,0,0,6.75,12.511v9.534a2.218,2.218,0,0,0,2.383,1.986h14.3a2.218,2.218,0,0,0,2.383-1.986V12.511A2.218,2.218,0,0,0,23.43,10.525Zm-6.314,6.2v3.416a.846.846,0,0,1-1.668.02V16.722a1.565,1.565,0,0,1-1.066-1.574,1.79,1.79,0,0,1,1.763-1.44,1.8,1.8,0,0,1,2.043,1.584A1.588,1.588,0,0,1,17.115,16.722Zm3.217-6.2h-8.1V8.142a3.1,3.1,0,0,1,1.191-2.383,4.613,4.613,0,0,1,5.719,0,3.1,3.1,0,0,1,1.191,2.383Z" transform="translate(-6.75 -3.374)" fill="#020e8a"/>
</svg>
