<svg xmlns="http://www.w3.org/2000/svg" xmlns:xlink="http://www.w3.org/1999/xlink" width="30" height="30" viewBox="0 0 30 30">
  <defs>
    <linearGradient id="linear-gradient" y1="0.5" x2="1" y2="0.5" gradientUnits="objectBoundingBox">
      <stop offset="0" stop-color="#d2deff" stop-opacity="0"/>
      <stop offset="1" stop-color="#b7c5ff"/>
    </linearGradient>
  </defs>
  <g id="iconprofilklinik" transform="translate(0.001 -0.746)">
    <path id="Path_416" data-name="Path 416" d="M26.472,3.285C17.064-2.466,2.419,2.779.715,6.926c-2.28,5.547,1.557,6.5,2.27,11.04.572,3.647-3,7.14-.961,10.359,2.22,3.506,9.578,2.626,12.375.967,5.12-3.037,2.538-6.582,4.962-11.007,2.309-4.214,6.811-2.5,9.431-5.876,2.49-3.2.839-7.193-2.32-9.124Z" transform="translate(0 0)" fill="url(#linear-gradient)"/>
    <g id="Group_365" data-name="Group 365" transform="translate(2.402 3.42)">
      <g id="Group_342" data-name="Group 342" transform="translate(0.298 0.681)" opacity="0.1">
        <path id="Path_417" data-name="Path 417" d="M163.694,441.8h-1.042a.28.28,0,1,0,0,.561h1.042a.28.28,0,1,0,0-.561Z" transform="translate(-155.573 -420.297)" fill="#2626bc"/>
        <path id="Path_418" data-name="Path 418" d="M125.937,460.184h-3.286a.28.28,0,1,0,0,.561h3.286a.28.28,0,1,0,0-.561Z" transform="translate(-117.919 -437.648)" fill="#2626bc"/>
        <path id="Path_419" data-name="Path 419" d="M125.937,478.565h-3.286a.28.28,0,0,0,0,.561h3.286a.28.28,0,0,0,0-.561Z" transform="translate(-117.919 -454.998)" fill="#2626bc"/>
        <path id="Path_420" data-name="Path 420" d="M71.862,96.224h-2.04A10.763,10.763,0,0,0,57.268,79.375v-.132a.591.591,0,0,0-.591-.59H49.968a.591.591,0,0,0-.591.59v3.766a.591.591,0,0,0,.591.59h2.507A10.754,10.754,0,0,0,51.3,92.052h-.658a.206.206,0,0,0-.206.206v1.671l-1.45-.835a.206.206,0,0,0-.281.075l-.838,1.448a.205.205,0,0,0,.075.281l1.45.836-1.45.836a.205.205,0,0,0-.075.281L48.7,98.3a.206.206,0,0,0,.281.075l1.45-.835v1.671a.206.206,0,0,0,.206.206h1.676a.206.206,0,0,0,.206-.206V97.537l1.45.835a.206.206,0,0,0,.281-.075l.507-.877a10.805,10.805,0,0,0,9.8,2.123v1.036a.591.591,0,0,0,.591.59h6.709a.591.591,0,0,0,.591-.59V96.814A.591.591,0,0,0,71.862,96.224Z" transform="translate(-47.836 -78.434)" fill="#2626bc"/>
      </g>
      <g id="Group_355" data-name="Group 355">
        <g id="Group_343" data-name="Group 343" transform="translate(3.195 0.28)">
          <ellipse id="Ellipse_55" data-name="Ellipse 55" cx="10.86" cy="10.902" rx="10.86" ry="10.902" fill="#6583fe"/>
          <path id="Path_421" data-name="Path 421" d="M183.8,129.149h-3.564v-3.586a.931.931,0,0,0-.928-.934h-2.893a.931.931,0,0,0-.928.934v3.586h-3.564a.931.931,0,0,0-.928.934v2.911a.931.931,0,0,0,.928.934h3.564v3.586a.931.931,0,0,0,.928.934h2.894a.931.931,0,0,0,.928-.934v-3.586H183.8a.931.931,0,0,0,.928-.934v-2.911A.931.931,0,0,0,183.8,129.149Z" transform="translate(-167.001 -120.636)" fill="#fff"/>
        </g>
        <path id="Path_422" data-name="Path 422" d="M55.167,286.8l-.847-1.459a.209.209,0,0,0-.284-.076l-1.465.841v-1.683a.208.208,0,0,0-.208-.207H50.668a.208.208,0,0,0-.208.207v1.683l-1.465-.841a.209.209,0,0,0-.284.076l-.847,1.459a.206.206,0,0,0,.076.283l1.465.841-1.465.841a.206.206,0,0,0-.076.283l.847,1.459a.209.209,0,0,0,.284.076l1.465-.841v1.683a.208.208,0,0,0,.208.207h1.694a.208.208,0,0,0,.208-.207v-1.683l1.465.841a.209.209,0,0,0,.284-.076l.847-1.459a.206.206,0,0,0-.076-.283l-1.465-.841,1.465-.841A.206.206,0,0,0,55.167,286.8Z" transform="translate(-47.555 -270.044)" fill="#fff"/>
        <g id="Group_348" data-name="Group 348" transform="translate(1.742 0.488)">
          <path id="Path_423" data-name="Path 423" d="M81.246,61.843H74.49a.579.579,0,0,1-.6-.561V57.7a.579.579,0,0,1,.6-.561h6.756a.579.579,0,0,1,.6.561v3.58A.579.579,0,0,1,81.246,61.843Z" transform="translate(-73.894 -57.142)" fill="#fff"/>
          <g id="Group_347" data-name="Group 347" transform="translate(2.573 0.952)">
            <g id="Group_344" data-name="Group 344" transform="translate(2.243)">
              <path id="Path_424" data-name="Path 424" d="M155.917,74.674h-1.042a.28.28,0,1,1,0-.561h1.042a.28.28,0,1,1,0,.561Z" transform="translate(-154.594 -74.113)" fill="#00c"/>
            </g>
            <g id="Group_345" data-name="Group 345" transform="translate(0 1.031)">
              <path id="Path_425" data-name="Path 425" d="M118.16,93.056h-3.286a.28.28,0,0,1,0-.561h3.286a.28.28,0,0,1,0,.561Z" transform="translate(-114.594 -92.495)" fill="#00c"/>
            </g>
            <g id="Group_346" data-name="Group 346" transform="translate(0 2.062)">
              <path id="Path_426" data-name="Path 426" d="M118.16,111.437h-3.286a.28.28,0,0,1,0-.561h3.286a.28.28,0,0,1,0,.561Z" transform="translate(-114.594 -110.876)" fill="#00c"/>
            </g>
          </g>
        </g>
        <g id="Group_354" data-name="Group 354">
          <path id="Path_427" data-name="Path 427" d="M337.972,359.864h-6.679a.589.589,0,0,1-.589-.589v-3.758a.589.589,0,0,1,.589-.589h6.679a.589.589,0,0,1,.589.589v3.758A.589.589,0,0,1,337.972,359.864Z" transform="translate(-313.646 -336.488)" fill="#fff"/>
          <g id="Group_349" data-name="Group 349">
            <path id="Path_428" data-name="Path 428" d="M163.694,416.8h-1.042a.28.28,0,1,0,0,.561h1.042a.28.28,0,1,0,0-.561Z" transform="translate(-155.281 -394.774)" fill="#00c"/>
            <path id="Path_429" data-name="Path 429" d="M125.937,435.184h-3.286a.28.28,0,0,0,0,.561h3.286a.28.28,0,0,0,0-.561Z" transform="translate(-117.625 -412.125)" fill="#00c"/>
            <path id="Path_430" data-name="Path 430" d="M125.937,453.565h-3.286a.28.28,0,1,0,0,.561h3.286a.28.28,0,1,0,0-.561Z" transform="translate(-117.625 -429.475)" fill="#00c"/>
            <path id="Path_431" data-name="Path 431" d="M67.147,66.387H65.732a11.164,11.164,0,0,0-8.76-17.953,10.921,10.921,0,0,0-4.166.818.888.888,0,0,0-.836-.6H45.265a.891.891,0,0,0-.886.893v3.8a.891.891,0,0,0,.886.893h1.993A11.209,11.209,0,0,0,45.91,59.58c0,.287.011.577.033.862a.3.3,0,0,0,.294.275h.023a.3.3,0,0,0,.272-.32c-.021-.27-.031-.545-.031-.816a10.6,10.6,0,0,1,1.438-5.338H51.97a.891.891,0,0,0,.886-.893V49.87a.294.294,0,0,0,.046-.014,10.338,10.338,0,0,1,4.069-.826,10.567,10.567,0,0,1,8.01,17.347l-.007.011H60.442a.891.891,0,0,0-.886.893v2.525a10.416,10.416,0,0,1-9.12-1.983l.205-.358a.507.507,0,0,0-.183-.69l-1.006-.585,1.006-.585a.507.507,0,0,0,.183-.69L49.8,63.452a.5.5,0,0,0-.685-.185l-1.006.585V62.682a.5.5,0,0,0-.5-.505H45.936a.5.5,0,0,0-.5.505v1.171l-1.006-.585a.5.5,0,0,0-.685.185l-.838,1.462a.508.508,0,0,0,.183.69l1.006.585-1.006.585a.508.508,0,0,0-.183.69l.838,1.462a.5.5,0,0,0,.685.185l1.006-.585V69.7a.5.5,0,0,0,.5.505h1.675a.5.5,0,0,0,.5-.505V68.525l1.006.585a.5.5,0,0,0,.685-.185l.334-.582a11.006,11.006,0,0,0,9.419,2.075v.662a.891.891,0,0,0,.886.893h3.369a.3.3,0,0,0,0-.6H60.442a.3.3,0,0,1-.3-.3v-3.8a.3.3,0,0,1,.3-.3h6.705a.3.3,0,0,1,.3.3v3.8a.3.3,0,0,1-.3.3H65.531a.3.3,0,0,0,0,.6h1.616a.891.891,0,0,0,.886-.893v-3.8A.891.891,0,0,0,67.147,66.387ZM52.266,53.349a.3.3,0,0,1-.3.3H45.265a.3.3,0,0,1-.3-.3v-3.8a.3.3,0,0,1,.3-.3H51.97a.3.3,0,0,1,.3.3Zm-2.93,15.2-1.372-.8a.293.293,0,0,0-.3,0,.3.3,0,0,0-.148.258v1.6h-1.5v-1.6a.3.3,0,0,0-.148-.258.293.293,0,0,0-.3,0l-1.372.8-.748-1.305,1.372-.8a.3.3,0,0,0,0-.516l-1.372-.8.748-1.305,1.372.8a.293.293,0,0,0,.3,0,.3.3,0,0,0,.148-.258v-1.6h1.5v1.6a.3.3,0,0,0,.148.258.293.293,0,0,0,.3,0l1.372-.8.748,1.305-1.372.8a.3.3,0,0,0,0,.516l1.372.8Z" transform="translate(-42.839 -48.434)" fill="#00c"/>
          </g>
          <g id="Group_353" data-name="Group 353" transform="translate(19.712 19.51)">
            <g id="Group_350" data-name="Group 350" transform="translate(2.243)">
              <path id="Path_432" data-name="Path 432" d="M412.727,372.46h-1.042a.28.28,0,0,1,0-.561h1.042a.28.28,0,1,1,0,.561Z" transform="translate(-411.404 -371.899)" fill="#00c"/>
            </g>
            <g id="Group_351" data-name="Group 351" transform="translate(0 1.031)">
              <path id="Path_433" data-name="Path 433" d="M374.97,390.842h-3.286a.28.28,0,1,1,0-.561h3.286a.28.28,0,0,1,0,.561Z" transform="translate(-371.404 -390.281)" fill="#00c"/>
            </g>
            <g id="Group_352" data-name="Group 352" transform="translate(0 2.062)">
              <path id="Path_434" data-name="Path 434" d="M374.97,409.223h-3.286a.28.28,0,1,1,0-.561h3.286a.28.28,0,0,1,0,.561Z" transform="translate(-371.404 -408.662)" fill="#00c"/>
            </g>
          </g>
        </g>
      </g>
      <g id="Group_364" data-name="Group 364" transform="translate(0.417 0.208)">
        <g id="Group_359" data-name="Group 359" transform="translate(0 6.283)">
          <g id="Group_356" data-name="Group 356" transform="translate(0.678)">
            <path id="Path_435" data-name="Path 435" d="M62.647,158.131a.28.28,0,0,1-.28-.28v-.008a.28.28,0,0,1,.561,0v.008A.28.28,0,0,1,62.647,158.131Z" transform="translate(-62.367 -157.562)" fill="#6583fe"/>
            <path id="Path_436" data-name="Path 436" d="M62.647,185.916a.28.28,0,0,1-.28-.28v-.008a.28.28,0,1,1,.561,0v.008A.28.28,0,0,1,62.647,185.916Z" transform="translate(-62.367 -183.789)" fill="#6583fe"/>
          </g>
          <g id="Group_357" data-name="Group 357" transform="translate(0 0.392)">
            <path id="Path_437" data-name="Path 437" d="M50.558,165.111a.279.279,0,0,1-.139-.037l-.007,0a.28.28,0,0,1,.278-.487l.007,0a.28.28,0,0,1-.139.524Z" transform="translate(-50.27 -164.545)" fill="#6583fe"/>
            <path id="Path_438" data-name="Path 438" d="M74.62,179a.279.279,0,0,1-.14-.038l-.007,0a.28.28,0,0,1,.281-.485l.007,0a.28.28,0,0,1-.141.523Z" transform="translate(-72.983 -177.658)" fill="#6583fe"/>
          </g>
          <g id="Group_358" data-name="Group 358" transform="translate(0 0.392)">
            <path id="Path_439" data-name="Path 439" d="M50.55,179a.28.28,0,0,1-.14-.524l.007,0a.28.28,0,0,1,.279.486l-.007,0A.279.279,0,0,1,50.55,179Z" transform="translate(-50.269 -177.657)" fill="#6583fe"/>
            <path id="Path_440" data-name="Path 440" d="M74.613,165.11a.28.28,0,0,1-.14-.524l.007,0a.28.28,0,1,1,.28.486l-.007,0A.279.279,0,0,1,74.613,165.11Z" transform="translate(-72.983 -164.545)" fill="#6583fe"/>
          </g>
        </g>
        <g id="Group_363" data-name="Group 363" transform="translate(14.252 23.189)">
          <g id="Group_360" data-name="Group 360" transform="translate(0.678)">
            <path id="Path_441" data-name="Path 441" d="M302.734,441.786a.28.28,0,0,1-.28-.28V441.5a.28.28,0,0,1,.561,0v.008A.28.28,0,0,1,302.734,441.786Z" transform="translate(-302.454 -441.217)" fill="#6583fe"/>
            <path id="Path_442" data-name="Path 442" d="M302.734,469.57a.28.28,0,0,1-.28-.28v-.008a.28.28,0,0,1,.561,0v.008A.28.28,0,0,1,302.734,469.57Z" transform="translate(-302.454 -467.443)" fill="#6583fe"/>
          </g>
          <g id="Group_361" data-name="Group 361" transform="translate(0 0.392)">
            <path id="Path_443" data-name="Path 443" d="M290.644,448.765a.279.279,0,0,1-.139-.037l-.007,0a.28.28,0,1,1,.278-.487l.007,0a.28.28,0,0,1-.139.524Z" transform="translate(-290.356 -448.2)" fill="#6583fe"/>
            <path id="Path_444" data-name="Path 444" d="M314.707,462.657a.279.279,0,0,1-.139-.037l-.007,0a.28.28,0,1,1,.28-.486l.007,0a.28.28,0,0,1-.14.524Z" transform="translate(-313.07 -461.313)" fill="#6583fe"/>
          </g>
          <g id="Group_362" data-name="Group 362" transform="translate(0 0.392)">
            <path id="Path_445" data-name="Path 445" d="M290.637,462.658a.28.28,0,0,1-.139-.524l.007,0a.28.28,0,0,1,.278.487l-.007,0A.279.279,0,0,1,290.637,462.658Z" transform="translate(-290.356 -461.313)" fill="#6583fe"/>
            <path id="Path_446" data-name="Path 446" d="M314.7,448.765a.28.28,0,0,1-.14-.524l.007,0a.28.28,0,0,1,.28.486l-.007,0A.279.279,0,0,1,314.7,448.765Z" transform="translate(-313.07 -448.2)" fill="#6583fe"/>
          </g>
        </g>
        <path id="Path_447" data-name="Path 447" d="M444.569,90.128a.28.28,0,0,1-.28-.28.356.356,0,0,0-.355-.355.28.28,0,0,1,0-.561.356.356,0,0,0,.355-.355.28.28,0,0,1,.561,0,.356.356,0,0,0,.355.355.28.28,0,0,1,0,.561.356.356,0,0,0-.355.355A.28.28,0,0,1,444.569,90.128Z" transform="translate(-420.305 -86.268)" fill="#6583fe"/>
        <path id="Path_448" data-name="Path 448" d="M246.916,433.775a.28.28,0,0,1-.28-.28.356.356,0,0,0-.355-.355.28.28,0,1,1,0-.561.356.356,0,0,0,.355-.355.28.28,0,1,1,.561,0,.356.356,0,0,0,.355.355.28.28,0,0,1,0,.561.356.356,0,0,0-.355.355A.28.28,0,0,1,246.916,433.775Z" transform="translate(-234.383 -409.274)" fill="#6583fe"/>
        <path id="Path_449" data-name="Path 449" d="M412.319,53.975a.28.28,0,0,1-.28-.28.356.356,0,0,0-.355-.355.28.28,0,0,1,0-.561.356.356,0,0,0,.355-.355.28.28,0,1,1,.561,0,.356.356,0,0,0,.355.355.28.28,0,0,1,0,.561.356.356,0,0,0-.355.355A.28.28,0,0,1,412.319,53.975Z" transform="translate(-389.864 -52.143)" fill="#6583fe"/>
      </g>
    </g>
  </g>
</svg>
