<svg xmlns="http://www.w3.org/2000/svg" width="20" height="20" viewBox="0 0 20 20">
  <path id="icondaftarpasienperiksa" d="M7,10c2.209,0,4-2.238,4-5S9.209,0,7,0,3,2.238,3,5,4.791,10,7,10Zm2.8,1.25H9.278a4.464,4.464,0,0,1-4.556,0H4.2C1.881,11.25,0,13.6,0,16.5v1.625A1.72,1.72,0,0,0,1.5,20h11A1.72,1.72,0,0,0,14,18.125V16.5C14,13.6,12.119,11.25,9.8,11.25ZM19.894,6.234l-.869-1.1a.321.321,0,0,0-.525,0L15.225,9.2,13.8,7.406a.321.321,0,0,0-.525,0L12.4,8.492a.548.548,0,0,0,0,.656l2.553,3.215a.321.321,0,0,0,.525,0l4.416-5.477a.553.553,0,0,0,0-.656Z" fill="#1e1c22"/>
</svg>
